<svg width="195" height="28" viewBox="0 0 195 28" fill="none" xmlns="http://www.w3.org/2000/svg">
<path fill-rule="evenodd" clip-rule="evenodd" d="M1.21027 4.86201H19.9695V23.6212H13.6754V24.8312H6.65577V23.6212H1.21027V4.86201ZM0 3.65173H1.21027H19.9695H21.1798V4.86201V23.6212V24.8315H19.9695H1.21027H0V23.6212V4.86201V3.65173Z" fill="#391463"/>
<path d="M7.86719 16.6013L7.86719 24.8312L6.65691 24.8312L6.65691 16.6013L7.86719 16.6013Z" fill="#391463"/>
<path fill-rule="evenodd" clip-rule="evenodd" d="M14.843 23.6216C14.4308 19.7517 11.2123 16.7202 7.26172 16.6014V17.8123C10.5434 17.929 13.2201 20.4213 13.6245 23.6216L14.843 23.6216Z" fill="#391463"/>
<path d="M31.1961 19.1955V9.27022H33.6281C36.1697 9.27022 38.2731 10.8697 38.2731 14.2438C38.2731 17.618 36.1478 19.1955 33.6062 19.1955H31.1961ZM33.7158 22C38.1416 22 41.4062 19.1517 41.4062 14.2438C41.4062 9.33595 38.1635 6.46573 33.7377 6.46573H28.1725V22H33.7158ZM48.7146 19.6775C47.2905 19.6775 45.9759 18.6258 45.9759 16.6101C45.9759 14.5725 47.2905 13.5427 48.7146 13.5427C50.1388 13.5427 51.4534 14.5725 51.4534 16.6101C51.4534 18.6478 50.1388 19.6775 48.7146 19.6775ZM48.7146 10.8916C45.4938 10.8916 43.0618 13.2798 43.0618 16.6101C43.0618 19.9185 45.4938 22.3287 48.7146 22.3287C51.9354 22.3287 54.3674 19.9185 54.3674 16.6101C54.3674 13.2798 51.9354 10.8916 48.7146 10.8916ZM63.2407 11.1764C63.0216 11.1545 62.8025 11.1326 62.5615 11.1326C61.6413 11.1326 60.1514 11.3955 59.4941 12.8197V11.2202H56.6677V22H59.5817V17.0702C59.5817 14.7478 60.8744 14.0247 62.3643 14.0247C62.6272 14.0247 62.912 14.0466 63.2407 14.1124V11.1764ZM68.2045 22V15.6899C68.2045 14.5067 68.9495 13.5646 70.2203 13.5646C71.5349 13.5646 72.1264 14.441 72.1264 15.6022V22H75.0186V15.6899C75.0186 14.5287 75.7635 13.5646 77.0124 13.5646C78.3489 13.5646 78.9186 14.441 78.9186 15.6022V22H81.745V15.0107C81.745 12.1185 79.8388 10.9135 77.845 10.9135C76.4208 10.9135 75.2815 11.3955 74.427 12.7101C73.8793 11.5489 72.6961 10.9135 71.2281 10.9135C70.045 10.9135 68.6646 11.4831 68.0731 12.5348V11.2202H65.2905V22H68.2045ZM105.779 19.6775C104.355 19.6775 103.041 18.6258 103.041 16.6101C103.041 14.5725 104.355 13.5427 105.779 13.5427C107.204 13.5427 108.518 14.5725 108.518 16.6101C108.518 18.6478 107.204 19.6775 105.779 19.6775ZM105.779 10.8916C102.559 10.8916 100.127 13.2798 100.127 16.6101C100.127 19.9185 102.559 22.3287 105.779 22.3287C109 22.3287 111.432 19.9185 111.432 16.6101C111.432 13.2798 109 10.8916 105.779 10.8916ZM118.575 19.6775C117.15 19.6775 115.836 18.6258 115.836 16.6101C115.836 14.5725 117.15 13.5427 118.575 13.5427C119.999 13.5427 121.313 14.5725 121.313 16.6101C121.313 18.6478 119.999 19.6775 118.575 19.6775ZM118.575 10.8916C115.354 10.8916 112.922 13.2798 112.922 16.6101C112.922 19.9185 115.354 22.3287 118.575 22.3287C121.795 22.3287 124.227 19.9185 124.227 16.6101C124.227 13.2798 121.795 10.8916 118.575 10.8916ZM129.442 22V15.6899C129.442 14.5067 130.187 13.5646 131.457 13.5646C132.772 13.5646 133.363 14.441 133.363 15.6022V22H136.256V15.6899C136.256 14.5287 137.001 13.5646 138.249 13.5646C139.586 13.5646 140.156 14.441 140.156 15.6022V22H142.982V15.0107C142.982 12.1185 141.076 10.9135 139.082 10.9135C137.658 10.9135 136.519 11.3955 135.664 12.7101C135.116 11.5489 133.933 10.9135 132.465 10.9135C131.282 10.9135 129.902 11.4831 129.31 12.5348V11.2202H126.528V22H129.442ZM149.199 22V15.9528H155.224V13.1702H149.177V9.33595H155.969V6.46573H146.153V22H149.199ZM164.436 22H167.219C167.175 21.6275 167.11 20.8826 167.11 20.05V11.2202H164.195V17.4865C164.195 18.7354 163.451 19.6118 162.158 19.6118C160.799 19.6118 160.186 18.6478 160.186 17.4427V11.2202H157.272V18.0343C157.272 20.3787 158.762 22.2848 161.369 22.2848C162.508 22.2848 163.757 21.8466 164.349 20.8388C164.349 21.277 164.393 21.7809 164.436 22ZM173.133 15.7994C173.133 14.5506 173.878 13.5646 175.149 13.5646C176.551 13.5646 177.143 14.5067 177.143 15.7118V22H180.057V15.2079C180.057 12.8416 178.83 10.9354 176.157 10.9354C174.996 10.9354 173.703 11.4393 173.046 12.5567V11.2202H170.219V22H173.133V15.7994ZM193.29 6.13708H190.42V12.2938C190.113 11.7242 189.237 10.9573 187.375 10.9573C184.329 10.9573 182.204 13.4331 182.204 16.5882C182.204 19.8528 184.395 22.2629 187.462 22.2629C188.908 22.2629 190.004 21.6056 190.486 20.7511C190.486 21.2551 190.552 21.7809 190.595 22H193.378C193.334 21.5618 193.29 20.773 193.29 20.05V6.13708ZM185.14 16.5882C185.14 14.6601 186.323 13.5646 187.813 13.5646C189.303 13.5646 190.464 14.6382 190.464 16.5663C190.464 18.5163 189.303 19.6556 187.813 19.6556C186.279 19.6556 185.14 18.5163 185.14 16.5882Z" fill="#391463"/>
<path fill-rule="evenodd" clip-rule="evenodd" d="M84.7188 21.795H87.8658V17.0613H91.843C91.843 17.0613 92.3091 18.1125 93.0356 19.317C96.0247 24.273 101.027 21.6711 101.027 21.6711L99.5775 19.5958C99.5775 19.5958 98.0381 20.4011 96.4893 18.8524C95.6052 17.9683 94.8352 16.1111 94.8352 16.1111C94.8352 16.1111 97.1708 14.6707 97.1708 11.7281C97.1708 7.39155 93.7015 6.04724 91.6882 6.04724H84.7188V21.795ZM87.8658 9.20357V13.9056H91.843C91.843 13.9056 94.0113 13.8153 94.0113 11.5546C94.0113 9.29385 91.843 9.20357 91.843 9.20357H87.8658Z" fill="#391463"/>
</svg>
